<svg width="54" height="54" viewBox="0 0 54 54" fill="none" xmlns="http://www.w3.org/2000/svg">
<circle cx="27" cy="27" r="27" fill="url(#paint0_linear)"/>
<path d="M36.537 13.5322L36.534 32.59C36.534 34.4122 34.5975 36.9879 30.955 36.9879C29.1048 36.9879 27.6058 36.0306 27.6058 34.2392C27.6058 31.9098 29.7567 30.501 32.0714 30.501C32.7145 30.501 33.1938 30.5875 33.5599 30.6813V19.9298L23.1402 21.796V35.522H23.1372C23.1372 37.3442 21.2006 39.9199 17.5582 39.9199C15.7079 39.9199 14.209 38.9626 14.209 37.1712C14.209 34.8417 16.3599 33.4329 18.6746 33.4329C19.3176 33.4329 19.7969 33.5194 20.1631 33.6132V16.4642L36.537 13.5322Z" fill="white"/>
<defs>
<linearGradient id="paint0_linear" x1="14.4659" y1="-9.96747e-07" x2="38.8237" y2="54.1286" gradientUnits="userSpaceOnUse">
<stop stop-color="#646464"/>
<stop offset="1"/>
</linearGradient>
</defs>
</svg>
