<svg width="90" height="90" viewBox="0 0 90 90" fill="none" xmlns="http://www.w3.org/2000/svg">
<g filter="url(#filter0_d)">
<circle cx="40.905" cy="40.905" r="39.905" fill="url(#paint0_linear)"/>
<path d="M55 21L54.9956 49.1667C54.9956 51.8598 52.1334 55.6667 46.75 55.6667C44.0154 55.6667 41.8 54.2518 41.8 51.6042C41.8 48.1613 44.979 46.0792 48.4 46.0792C49.3504 46.0792 50.0588 46.207 50.6 46.3457V30.4553L35.2 33.2135V53.5H35.1956C35.1956 56.1932 32.3334 60 26.95 60C24.2154 60 22 58.5852 22 55.9375C22 52.4947 25.179 50.4125 28.6 50.4125C29.5504 50.4125 30.2588 50.5403 30.8 50.679V25.3333L55 21Z" fill="white"/>
</g>
<defs>
<filter id="filter0_d" x="0" y="0" width="89.81" height="89.81" filterUnits="userSpaceOnUse" color-interpolation-filters="sRGB">
<feFlood flood-opacity="0" result="BackgroundImageFix"/>
<feColorMatrix in="SourceAlpha" type="matrix" values="0 0 0 0 0 0 0 0 0 0 0 0 0 0 0 0 0 0 127 0" result="hardAlpha"/>
<feOffset dx="4" dy="4"/>
<feGaussianBlur stdDeviation="2.5"/>
<feColorMatrix type="matrix" values="0 0 0 0 0 0 0 0 0 0 0 0 0 0 0 0 0 0 0.25 0"/>
<feBlend mode="normal" in2="BackgroundImageFix" result="effect1_dropShadow"/>
<feBlend mode="normal" in="SourceGraphic" in2="effect1_dropShadow" result="shape"/>
</filter>
<linearGradient id="paint0_linear" x1="22.38" y1="0.999999" x2="58.38" y2="81" gradientUnits="userSpaceOnUse">
<stop stop-color="#F1F1F1"/>
<stop offset="1" stop-color="#BC15BF"/>
</linearGradient>
</defs>
</svg>
