<svg width="80" height="80" viewBox="0 0 80 80" fill="none" xmlns="http://www.w3.org/2000/svg">
<circle cx="39.905" cy="39.905" r="39.905" fill="url(#paint0_linear)"/>
<path d="M40.8568 20.0325C42.9929 20 45.1127 20.0162 47.2326 20C47.363 22.4862 48.2599 25.0212 50.0862 26.7762C51.9125 28.5799 54.4888 29.4086 57 29.6849V36.2335C54.6519 36.1523 52.2875 35.6648 50.1514 34.6573C49.2219 34.2348 48.3577 33.6986 47.5098 33.1461C47.4935 37.891 47.5261 42.636 47.4771 47.3647C47.3467 49.6396 46.5966 51.8984 45.2758 53.7671C43.1397 56.887 39.4382 58.9183 35.6388 58.9833C33.307 59.1133 30.9752 58.4795 28.9859 57.3095C25.692 55.3758 23.3765 51.8334 23.0341 48.0309C23.0015 47.2184 22.9852 46.4059 23.0178 45.6097C23.3113 42.5222 24.8441 39.5648 27.2248 37.5498C29.9316 35.2098 33.7147 34.0886 37.2531 34.7548C37.2857 37.1598 37.1879 39.5648 37.1879 41.9697C35.5736 41.4497 33.6821 41.596 32.2634 42.571C31.2361 43.2372 30.4534 44.2609 30.0458 45.4147C29.7033 46.2434 29.8012 47.1534 29.8175 48.0309C30.2088 50.6959 32.7852 52.9383 35.5247 52.6946C37.351 52.6783 39.0957 51.6221 40.0415 50.0784C40.3513 49.5421 40.6937 48.9896 40.7101 48.3559C40.8731 45.4472 40.8079 42.5547 40.8242 39.646C40.8405 33.0973 40.8079 26.5649 40.8568 20.0325Z" fill="white"/>
<path d="M37.0874 35.916V34.2121C36.4552 34.1285 35.8182 34.0852 35.1805 34.0825C27.3809 34.0825 21.0342 40.0222 21.0342 47.323C21.0342 51.8007 23.4261 55.7658 27.0736 58.1623C24.6312 55.7177 23.2725 52.4956 23.2747 49.1485C23.2747 41.952 29.4403 36.0834 37.0874 35.916Z" fill="#00F2EA"/>
<path d="M37.4627 54.7224C40.7605 54.7224 43.4494 52.116 43.5721 48.8664L43.5836 19.8651H48.9156C48.8014 19.2598 48.7435 18.6453 48.7424 18.0293H41.4611L41.4485 47.0317C41.327 50.2791 38.6358 52.8854 35.3391 52.8854C34.3501 52.8855 33.3758 52.6454 32.5 52.1859C33.0675 52.9712 33.8133 53.6106 34.6761 54.0515C35.5388 54.4925 36.4939 54.7224 37.4627 54.7224ZM58.8731 29.7092V28.097C56.9157 28.0991 54.9997 27.5331 53.3577 26.4676C54.7989 28.1147 56.734 29.2518 58.8743 29.7092" fill="#00F2EA"/>
<path d="M53.1413 26.8793C51.5402 25.0705 50.656 22.7385 50.6554 20.3228H48.7095C48.9641 21.6593 49.4884 22.93 50.2504 24.0573C51.0124 25.1846 51.996 26.1448 53.1413 26.8793ZM35.1675 41.0371C31.7963 41.0417 29.065 43.7444 29.0615 47.08C29.065 48.1858 29.3721 49.2694 29.9491 50.2126C30.5262 51.1559 31.3512 51.9226 32.3341 52.4292C31.5841 51.4073 31.1792 50.1731 31.1783 48.9055C31.1817 45.5687 33.913 42.8649 37.2842 42.8615C37.9149 42.8615 38.5169 42.9647 39.0868 43.1412V35.8026C38.4895 35.7187 37.8873 35.675 37.2842 35.6719C37.1787 35.6719 37.0744 35.6788 36.97 35.6799V41.3169C36.3867 41.1333 35.779 41.0389 35.1675 41.0371Z" fill="#FF004F"/>
<path d="M57.9028 30.6426V36.2429C54.2806 36.2482 50.7474 35.1213 47.7973 33.0196V47.659C47.7973 54.9712 41.8003 60.9201 34.4295 60.9201C31.5801 60.9201 28.9382 60.028 26.7676 58.5155C28.0207 59.8533 29.5352 60.9194 31.2174 61.6476C32.8995 62.3758 34.7133 62.7507 36.5463 62.749C43.9181 62.749 49.9152 56.8001 49.9152 49.489V34.8485C52.8654 36.9498 56.3986 38.0764 60.0207 38.0706V30.8662C59.3088 30.866 58.599 30.791 57.9028 30.6426Z" fill="#FF004F"/>
<path d="M48.53 47.1775V32.514C51.5659 34.6244 55.1767 35.7515 58.874 35.743V30.1359C56.6999 29.6859 54.7265 28.5529 53.2416 26.9023C50.8658 25.4036 49.226 23.0266 48.7055 20.3228H43.2623L43.2508 49.2357C43.1247 52.4739 40.3784 55.0722 37.013 55.0722C35.0018 55.0699 33.1167 54.1297 31.9448 52.545C29.8877 51.4981 28.5977 49.4307 28.5965 47.1763C28.6 43.8281 31.3944 41.1162 34.8458 41.1117C35.4879 41.1117 36.1048 41.2149 36.6896 41.3926V35.7361C29.2926 35.9047 23.3276 41.7905 23.3276 49.0075C23.3276 52.4991 24.7254 55.6765 27.0027 58.0489C29.3151 59.6225 32.0487 60.4614 34.8458 60.4558C42.3908 60.4558 48.53 54.4989 48.53 47.1775Z" fill="white"/>
<defs>
<linearGradient id="paint0_linear" x1="19.19" y1="1.53733e-06" x2="56.69" y2="80" gradientUnits="userSpaceOnUse">
<stop stop-color="#6D6D6D"/>
<stop offset="1"/>
</linearGradient>
</defs>
</svg>
