<svg width="54" height="54" viewBox="0 0 54 54" fill="none" xmlns="http://www.w3.org/2000/svg">
<circle cx="27" cy="27" r="27" fill="url(#paint0_linear)"/>
<path d="M27.6441 13.5542C29.0894 13.5322 30.5236 13.5432 31.9579 13.5322C32.0462 15.2144 32.653 16.9296 33.8887 18.117C35.1244 19.3374 36.8676 19.8982 38.5666 20.0851V24.516C36.9779 24.461 35.3781 24.1311 33.9328 23.4495C33.3039 23.1636 32.7192 22.8008 32.1455 22.427C32.1345 25.6374 32.1565 28.8479 32.1234 32.0473C32.0352 33.5866 31.5276 35.1149 30.634 36.3793C29.1887 38.4903 26.6842 39.8646 24.1135 39.9086C22.5358 39.9965 20.9581 39.5677 19.6121 38.7761C17.3834 37.4677 15.8168 35.0709 15.5851 32.4981C15.563 31.9484 15.552 31.3987 15.574 30.8599C15.7726 28.7709 16.8097 26.7699 18.4205 25.4065C20.252 23.8233 22.8116 23.0647 25.2058 23.5154C25.2278 25.1427 25.1616 26.7699 25.1616 28.3971C24.0694 28.0453 22.7896 28.1442 21.8297 28.8039C21.1346 29.2547 20.6051 29.9474 20.3292 30.728C20.0975 31.2887 20.1637 31.9044 20.1748 32.4981C20.4396 34.3013 22.1828 35.8185 24.0363 35.6536C25.272 35.6426 26.4525 34.928 27.0924 33.8835C27.302 33.5206 27.5337 33.1468 27.5448 32.718C27.6551 30.75 27.611 28.7929 27.622 26.8248C27.633 22.394 27.611 17.9741 27.6441 13.5542V13.5542Z" fill="white"/>
<defs>
<linearGradient id="paint0_linear" x1="12.9841" y1="1.04017e-06" x2="38.3568" y2="54.1286" gradientUnits="userSpaceOnUse">
<stop stop-color="#6D6D6D"/>
<stop offset="1"/>
</linearGradient>
</defs>
</svg>
