<svg width="54" height="54" viewBox="0 0 54 54" fill="none" xmlns="http://www.w3.org/2000/svg">
<circle cx="27" cy="27" r="27" fill="url(#paint0_linear)"/>
<path d="M29.4476 24.3338C29.4312 24.3665 29.4092 24.3945 29.3831 24.416C29.3569 24.4374 29.3273 24.4519 29.2961 24.4583C29.2649 24.4647 29.2329 24.4629 29.2024 24.4531C29.1718 24.4432 29.1434 24.4256 29.119 24.4013L29.1056 24.3885C28.7592 24.0403 28.4475 23.6814 28.1544 23.299C25.3042 19.5676 26.9686 14.9868 26.982 14.944C27.0214 14.8351 27.0297 14.7135 27.0056 14.5983C26.9815 14.4831 26.9263 14.3808 26.8487 14.3076C26.7679 14.2378 26.6697 14.2033 26.5705 14.2097C26.4712 14.2162 26.3767 14.2631 26.3025 14.343C16.6433 25.178 19.2013 33.4312 19.3879 33.9872C20.1606 37.3522 23.2382 39.7872 26.8878 39.9115C27.0104 39.9201 27.1028 39.9201 27.2102 39.9201C31.5198 39.9201 35.1836 36.718 35.1836 32.6278V32.5635C35.1836 26.8889 30.9247 21.2914 30.7346 21.0535C30.678 20.9754 30.6017 20.922 30.5173 20.9016C30.433 20.8813 30.3454 20.8951 30.2683 20.941C30.1084 21.0225 30.0045 21.2142 30.0098 21.4242C30.048 22.5341 29.8615 23.4971 29.4494 24.3167V24.3328L29.4476 24.3338Z" fill="white"/>
<defs>
<linearGradient id="paint0_linear" x1="14.0464" y1="3.38303" x2="40.434" y2="54.1286" gradientUnits="userSpaceOnUse">
<stop stop-color="#555555"/>
<stop offset="1"/>
</linearGradient>
</defs>
</svg>
