<svg width="99" height="99" viewBox="0 0 99 99" fill="none" xmlns="http://www.w3.org/2000/svg">
<g filter="url(#filter0_d)">
<circle cx="44.5" cy="44.5" r="39.5" fill="white"/>
<path d="M57.4169 62.6189L63.8973 32.0681C64.1618 30.7749 64.0075 29.8491 63.4344 29.2907C62.8613 28.7323 62.1045 28.6295 61.1641 28.9821L23.0748 43.6624C22.2225 43.9857 21.642 44.3531 21.3334 44.7645C21.0248 45.176 20.9881 45.5654 21.2232 45.9328C21.4583 46.3001 21.9286 46.5867 22.6339 46.7924L32.3767 49.8343L54.9922 35.5949C55.6094 35.1834 56.0796 35.0952 56.4029 35.3304C56.6086 35.4773 56.5499 35.6977 56.2266 35.9916L37.9314 52.5234L37.226 62.5748C37.902 62.5748 38.5632 62.2515 39.2098 61.6049L43.971 57.0201L53.846 64.2941C55.7269 65.3521 56.9172 64.7937 57.4169 62.6189ZM84 44.5C84 49.849 82.9567 54.9628 80.87 59.8415C78.7833 64.7202 75.9766 68.923 72.4498 72.4498C68.923 75.9766 64.7202 78.7833 59.8415 80.87C54.9628 82.9567 49.849 84 44.5 84C39.151 84 34.0372 82.9567 29.1585 80.87C24.2798 78.7833 20.077 75.9766 16.5502 72.4498C13.0234 68.923 10.2167 64.7202 8.13002 59.8415C6.04334 54.9628 5 49.849 5 44.5C5 39.151 6.04334 34.0372 8.13002 29.1585C10.2167 24.2798 13.0234 20.077 16.5502 16.5502C20.077 13.0234 24.2798 10.2167 29.1585 8.13002C34.0372 6.04334 39.151 5 44.5 5C49.849 5 54.9628 6.04334 59.8415 8.13002C64.7202 10.2167 68.923 13.0234 72.4498 16.5502C75.9766 20.077 78.7833 24.2798 80.87 29.1585C82.9567 34.0372 84 39.151 84 44.5Z" fill="#25A2E0"/>
</g>
<defs>
<filter id="filter0_d" x="0" y="0" width="99" height="99" filterUnits="userSpaceOnUse" color-interpolation-filters="sRGB">
<feFlood flood-opacity="0" result="BackgroundImageFix"/>
<feColorMatrix in="SourceAlpha" type="matrix" values="0 0 0 0 0 0 0 0 0 0 0 0 0 0 0 0 0 0 127 0" result="hardAlpha"/>
<feOffset dx="5" dy="5"/>
<feGaussianBlur stdDeviation="5"/>
<feColorMatrix type="matrix" values="0 0 0 0 0 0 0 0 0 0 0 0 0 0 0 0 0 0 0.25 0"/>
<feBlend mode="normal" in2="BackgroundImageFix" result="effect1_dropShadow"/>
<feBlend mode="normal" in="SourceGraphic" in2="effect1_dropShadow" result="shape"/>
</filter>
</defs>
</svg>
