<svg width="99" height="99" viewBox="0 0 99 99" fill="none" xmlns="http://www.w3.org/2000/svg">
<g filter="url(#filter0_d)">
<circle cx="44.5" cy="44.5" r="39.5" fill="#9069AE"/>
<path d="M44.1664 25.7871C41.348 25.7871 34.3764 26.0868 30.668 29.6834C27.998 32.231 26.9597 36.1273 26.8114 40.7729C26.5147 48.1159 28.1464 52.7615 30.8164 55.1593C31.4097 55.6088 32.893 56.8077 35.7114 57.7068V61.4533C35.7114 61.4533 35.7114 62.9519 36.6014 63.2516C36.7497 63.2516 36.898 63.4014 37.0464 63.4014C37.9364 63.4014 38.678 62.3524 39.7164 61.3034C40.6064 60.2544 41.348 59.5051 41.793 58.7559H45.0564C47.8747 58.7559 54.8464 58.4561 58.5547 54.8595C61.2247 52.1621 62.263 48.2658 62.263 43.3205C62.4114 42.5712 62.4114 41.672 62.4114 40.7729C62.263 35.2282 60.6314 31.4817 58.4064 29.3837C57.5164 28.6344 53.6597 25.7871 45.353 25.7871H44.1664ZM43.8697 28.6344H45.2047C53.0664 28.6344 56.033 31.182 56.3297 31.4817C58.1097 32.9803 59.148 36.2772 59.2964 40.623V41.2225C59.4447 42.1216 59.4447 42.8709 59.4447 43.3205C59.2964 47.8162 58.4064 50.8134 56.6264 52.7615C53.5114 55.6088 46.9847 55.7587 45.2047 55.7587H42.3864L40.013 58.4561L38.5297 60.1046L38.233 60.5541C37.9364 60.8539 37.4914 61.4533 37.1947 61.6031V54.8595C34.228 54.1103 33.0414 53.0613 32.7447 52.7615C30.668 50.9632 29.4814 46.6174 29.778 40.7729V39.2743C30.0747 35.6777 30.9647 33.28 32.448 31.6316C35.563 28.7843 42.0897 28.6344 43.8697 28.6344ZM43.7214 31.9313C42.9797 31.9313 42.9797 32.9803 43.7214 32.9803C49.2097 32.9803 53.9564 36.7267 53.9564 43.7701C53.9564 44.5193 54.9947 44.5193 54.9947 43.7701C54.9947 36.1273 49.9514 31.7814 43.7214 31.9313ZM37.8429 33.3175C37.5068 33.2768 37.1683 33.3703 36.8995 33.5782C35.4162 34.3275 33.9314 35.8291 34.3764 37.4775C34.3764 37.4775 34.673 38.8247 36.3047 41.672C37.1947 43.0208 37.9364 44.2196 38.678 45.1188C39.4197 46.1678 40.6064 47.3666 41.793 48.2658C44.1664 50.2139 47.8747 52.1621 49.5064 52.6117C50.9897 53.0612 52.6214 51.5627 53.363 50.0641C53.6597 49.4647 53.5114 48.7154 52.918 48.2658C52.028 47.3666 50.5447 46.3176 49.5064 45.7182C48.7647 45.2686 47.8747 45.5684 47.578 46.0179L46.8364 46.9171C46.5397 47.3666 45.798 47.3666 45.798 47.3666C40.903 46.0179 39.568 40.9228 39.568 40.9228C39.568 40.9228 39.568 40.3233 40.013 39.8738L40.903 39.1245C41.348 38.8247 41.6447 37.9256 41.1997 37.1763C40.903 36.7267 40.458 35.8276 40.013 35.378C39.568 34.7786 38.678 33.7296 38.678 33.7296C38.453 33.5019 38.159 33.3568 37.8429 33.3175ZM44.7597 34.9284C44.018 34.7786 43.8697 35.9774 44.6114 35.9774C48.7647 36.2772 51.138 39.1245 50.9897 42.7211C50.8414 43.4703 52.028 43.4703 52.028 42.7211C52.1764 38.525 49.5064 35.0783 44.7597 34.9284ZM45.2047 37.7757C44.463 37.6259 44.463 38.8247 45.2047 38.8247C46.9847 38.8247 47.8747 39.8738 47.8747 41.672C48.023 42.4213 49.0614 42.4213 49.0614 41.672C48.913 39.2743 47.578 37.7757 45.2047 37.7757Z" fill="white"/>
</g>
<defs>
<filter id="filter0_d" x="0" y="0" width="99" height="99" filterUnits="userSpaceOnUse" color-interpolation-filters="sRGB">
<feFlood flood-opacity="0" result="BackgroundImageFix"/>
<feColorMatrix in="SourceAlpha" type="matrix" values="0 0 0 0 0 0 0 0 0 0 0 0 0 0 0 0 0 0 127 0" result="hardAlpha"/>
<feOffset dx="5" dy="5"/>
<feGaussianBlur stdDeviation="5"/>
<feColorMatrix type="matrix" values="0 0 0 0 0 0 0 0 0 0 0 0 0 0 0 0 0 0 0.25 0"/>
<feBlend mode="normal" in2="BackgroundImageFix" result="effect1_dropShadow"/>
<feBlend mode="normal" in="SourceGraphic" in2="effect1_dropShadow" result="shape"/>
</filter>
</defs>
</svg>
