<svg width="100" height="100" viewBox="0 0 100 100" fill="none" xmlns="http://www.w3.org/2000/svg">
<g filter="url(#filter0_d)">
<circle cx="44.905" cy="44.905" r="39.905" fill="#43EA61"/>
<path d="M53.5452 48.7279C53.0829 48.4904 50.7801 47.3623 50.3517 47.2096C49.9234 47.0484 49.6095 46.9721 49.2999 47.4471C48.9861 47.9178 48.0955 48.9654 47.8156 49.2835C47.5442 49.5973 47.2685 49.6355 46.8062 49.4022C44.058 48.0281 42.2556 46.9509 40.4447 43.8422C39.9655 43.0152 40.9239 43.0746 41.8188 41.2891C41.9715 40.9753 41.8951 40.7081 41.7764 40.4706C41.6576 40.2331 40.7246 37.9345 40.3344 36.9972C39.957 36.0854 39.5668 36.2126 39.2827 36.1957C39.0112 36.1787 38.7016 36.1787 38.3878 36.1787C38.074 36.1787 37.5693 36.2975 37.1409 36.7597C36.7126 37.2305 35.5039 38.3628 35.5039 40.6615C35.5039 42.9601 37.1791 45.1866 37.4081 45.5005C37.6456 45.8143 40.7034 50.5303 45.3982 52.5618C48.3669 53.8426 49.529 53.9528 51.0133 53.7323C51.9166 53.5966 53.7785 52.6042 54.1644 51.5058C54.5503 50.4116 54.5503 49.4743 54.4358 49.2792C54.3213 49.0714 54.0075 48.9527 53.5452 48.7279Z" fill="white"/>
<path d="M62.5239 37.6374C61.5654 35.3599 60.1913 33.3158 58.4398 31.56C56.6883 29.8084 54.6441 28.4301 52.3624 27.4759C50.0299 26.4962 47.5531 26 45 26H44.9152C42.3451 26.0127 39.8556 26.5216 37.5146 27.5225C35.2541 28.4895 33.2269 29.8636 31.4924 31.6151C29.7578 33.3666 28.3964 35.4023 27.4549 37.6713C26.4795 40.0208 25.9875 42.5188 26.0002 45.0888C26.013 48.0321 26.717 50.9542 28.0359 53.5666V60.013C28.0359 61.0902 28.9096 61.9638 29.9868 61.9638H36.4374C39.0499 63.2828 41.9719 63.9868 44.9152 63.9995H45.0042C47.5446 63.9995 50.0086 63.5076 52.3285 62.5449C54.5974 61.5991 56.6374 60.242 58.3847 58.5074C60.1362 56.7728 61.5145 54.7456 62.4772 52.4852C63.4781 50.1441 63.987 47.6546 63.9998 45.0846C64.0125 42.5018 63.512 39.9954 62.5239 37.6374ZM56.1157 56.213C53.1428 59.1563 49.1986 60.7764 45 60.7764H44.9279C42.3706 60.7636 39.8302 60.1275 37.5867 58.9315L37.2305 58.7407H31.2591V52.7693L31.0683 52.4131C29.8723 50.1696 29.2361 47.6292 29.2234 45.0719C29.2065 40.8436 30.8223 36.874 33.7868 33.8841C36.747 30.8941 40.7039 29.2401 44.9321 29.2232H45.0042C47.1248 29.2232 49.1816 29.6346 51.1198 30.4488C53.0113 31.2419 54.7077 32.3827 56.1666 33.8416C57.6213 35.2963 58.7663 36.997 59.5594 38.8885C60.3822 40.8478 60.7936 42.9259 60.7851 45.0719C60.7596 49.2959 59.1014 53.2528 56.1157 56.213Z" fill="white"/>
</g>
<defs>
<filter id="filter0_d" x="0" y="0" width="99.81" height="99.81" filterUnits="userSpaceOnUse" color-interpolation-filters="sRGB">
<feFlood flood-opacity="0" result="BackgroundImageFix"/>
<feColorMatrix in="SourceAlpha" type="matrix" values="0 0 0 0 0 0 0 0 0 0 0 0 0 0 0 0 0 0 127 0" result="hardAlpha"/>
<feOffset dx="5" dy="5"/>
<feGaussianBlur stdDeviation="5"/>
<feColorMatrix type="matrix" values="0 0 0 0 0 0 0 0 0 0 0 0 0 0 0 0 0 0 0.25 0"/>
<feBlend mode="normal" in2="BackgroundImageFix" result="effect1_dropShadow"/>
<feBlend mode="normal" in="SourceGraphic" in2="effect1_dropShadow" result="shape"/>
</filter>
</defs>
</svg>
