<svg width="90" height="90" viewBox="0 0 90 90" fill="none" xmlns="http://www.w3.org/2000/svg">
<g filter="url(#filter0_d)">
<circle cx="40.905" cy="40.905" r="39.905" fill="#FFC85F"/>
<path d="M35.8716 45.6175H45.7561L40.8797 30.4297L35.8716 45.6175Z" fill="black"/>
<path d="M40.905 1C18.8668 1 1 18.8655 1 40.905C1 62.9445 18.8668 80.81 40.905 80.81C62.9432 80.81 80.81 62.9432 80.81 40.905C80.81 18.8655 62.9432 1 40.905 1ZM50.4383 60.2031L47.8924 52.2686H33.6782L31.0618 60.2031H22.6258L36.4037 21.6069H45.5273L59.1828 60.2031H50.4383Z" fill="url(#paint0_linear)"/>
</g>
<defs>
<filter id="filter0_d" x="0" y="0" width="89.81" height="89.81" filterUnits="userSpaceOnUse" color-interpolation-filters="sRGB">
<feFlood flood-opacity="0" result="BackgroundImageFix"/>
<feColorMatrix in="SourceAlpha" type="matrix" values="0 0 0 0 0 0 0 0 0 0 0 0 0 0 0 0 0 0 127 0" result="hardAlpha"/>
<feOffset dx="4" dy="4"/>
<feGaussianBlur stdDeviation="2.5"/>
<feColorMatrix type="matrix" values="0 0 0 0 0 0 0 0 0 0 0 0 0 0 0 0 0 0 0.25 0"/>
<feBlend mode="normal" in2="BackgroundImageFix" result="effect1_dropShadow"/>
<feBlend mode="normal" in="SourceGraphic" in2="effect1_dropShadow" result="shape"/>
</filter>
<linearGradient id="paint0_linear" x1="16.07" y1="7" x2="57.07" y2="75" gradientUnits="userSpaceOnUse">
<stop stop-color="#5B5B5B"/>
<stop offset="1"/>
</linearGradient>
</defs>
</svg>
