<svg width="90" height="90" viewBox="0 0 90 90" fill="none" xmlns="http://www.w3.org/2000/svg">
<g filter="url(#filter0_d)">
<circle cx="40.905" cy="40.905" r="39.905" fill="url(#paint0_linear)"/>
<path d="M30 21.0065L37.9031 42.8826V42.8712L38.5287 44.594C42.0027 54.1961 43.8695 59.3433 43.8795 59.3547C43.8861 59.3547 44.4119 59.3872 45.0475 59.4197C46.9708 59.5009 49.3567 59.7122 51.1636 59.9235C51.5796 59.9723 51.939 59.9885 51.9623 59.9723L44.1257 38.2587L43.4003 36.2596L39.3689 25.1266C38.6035 23.0137 37.9547 21.2129 37.9214 21.1446L37.8698 21H30.0083L30 21.0065ZM44.1557 21.0195L44.139 29.6432L44.1257 38.2668L43.3986 36.2645V36.2613L42.4586 55.4557C43.382 58.0024 43.8761 59.3612 43.8811 59.3677C43.8878 59.3742 44.4136 59.4067 45.0491 59.4359C46.9742 59.5172 49.3584 59.7285 51.1719 59.9398C51.5879 59.9885 51.9489 60.0048 51.9706 59.9885C51.9922 59.9723 52.0038 51.1796 51.9989 40.4691L51.9855 21.0163H44.1557V21.0195ZM30 21.0033V40.4902C30 51.2072 30.0116 59.9853 30.025 59.9983C30.0383 60.0113 30.7171 59.9495 31.534 59.8585C32.3493 59.761 33.4807 59.6472 34.0464 59.5985C34.9082 59.5172 37.4871 59.3547 37.7866 59.3547C37.8731 59.3547 37.8798 58.9158 37.8914 51.0983L37.9047 42.842L38.537 44.5647L38.7533 45.1758L39.7017 25.9977L39.3855 25.1103L37.9214 21.1446L37.8715 21.0033H30Z" fill="#CA1616"/>
</g>
<defs>
<filter id="filter0_d" x="0" y="0" width="89.81" height="89.81" filterUnits="userSpaceOnUse" color-interpolation-filters="sRGB">
<feFlood flood-opacity="0" result="BackgroundImageFix"/>
<feColorMatrix in="SourceAlpha" type="matrix" values="0 0 0 0 0 0 0 0 0 0 0 0 0 0 0 0 0 0 127 0" result="hardAlpha"/>
<feOffset dx="4" dy="4"/>
<feGaussianBlur stdDeviation="2.5"/>
<feColorMatrix type="matrix" values="0 0 0 0 0 0 0 0 0 0 0 0 0 0 0 0 0 0 0.25 0"/>
<feBlend mode="normal" in2="BackgroundImageFix" result="effect1_dropShadow"/>
<feBlend mode="normal" in="SourceGraphic" in2="effect1_dropShadow" result="shape"/>
</filter>
<linearGradient id="paint0_linear" x1="22.45" y1="7" x2="66.45" y2="81" gradientUnits="userSpaceOnUse">
<stop stop-color="#555555"/>
<stop offset="1"/>
</linearGradient>
</defs>
</svg>
