<svg width="54" height="54" viewBox="0 0 54 54" fill="none" xmlns="http://www.w3.org/2000/svg">
<circle cx="27" cy="27" r="27" fill="url(#paint0_linear)"/>
<path d="M19.6216 13.5366L24.9689 28.3381V28.3304L25.3921 29.4961C27.7427 35.9929 29.0058 39.4756 29.0125 39.4833C29.017 39.4833 29.3728 39.5053 29.8028 39.5272C31.1042 39.5822 32.7185 39.7252 33.941 39.8681C34.2225 39.9011 34.4656 39.9121 34.4814 39.9011L29.1791 25.2096L28.6883 23.857L25.9606 16.3243C25.4428 14.8947 25.0038 13.6763 24.9812 13.6301L24.9463 13.5322H19.6272L19.6216 13.5366ZM29.1994 13.5454L29.1881 19.3803L29.1791 25.2151L28.6872 23.8603V23.8581L28.0511 36.8452C28.6759 38.5683 29.0103 39.4877 29.0137 39.4921C29.0182 39.4965 29.3739 39.5185 29.8039 39.5382C31.1064 39.5932 32.7196 39.7362 33.9467 39.8791C34.2281 39.9121 34.4724 39.9231 34.487 39.9121C34.5017 39.9011 34.5095 33.9519 34.5062 26.7051L34.4972 13.5432H29.1994V13.5454ZM19.6216 13.5344V26.7194C19.6216 33.9706 19.6295 39.9099 19.6385 39.9187C19.6475 39.9275 20.1068 39.8857 20.6595 39.8242C21.2111 39.7582 21.9766 39.6812 22.3594 39.6482C22.9425 39.5932 24.6874 39.4833 24.8901 39.4833C24.9486 39.4833 24.9531 39.1863 24.961 33.897L24.97 28.3106L25.3978 29.4763L25.5441 29.8898L26.1858 16.9137L25.9719 16.3133L24.9812 13.6301L24.9475 13.5344H19.6216Z" fill="white"/>
<defs>
<linearGradient id="paint0_linear" x1="14.5132" y1="4.05964" x2="44.2839" y2="54.1286" gradientUnits="userSpaceOnUse">
<stop stop-color="#555555"/>
<stop offset="1"/>
</linearGradient>
</defs>
</svg>
