<svg width="64" height="64" viewBox="0 0 64 64" fill="none" xmlns="http://www.w3.org/2000/svg">
<g filter="url(#filter0_d)">
<circle cx="28" cy="28" r="27" fill="white"/>
<path d="M28 1C13.0881 1 1 13.0881 1 28C1 42.9119 13.0881 55 28 55C42.9119 55 55 42.9119 55 28C55 13.0881 42.9119 1 28 1ZM34.3956 19.6581H30.3372C29.8563 19.6581 29.3219 20.2909 29.3219 21.1319V24.0625H34.3984L33.6306 28.2419H29.3219V40.7884H24.5322V28.2419H20.1869V24.0625H24.5322V21.6044C24.5322 18.0775 26.9791 15.2116 30.3372 15.2116H34.3956V19.6581Z" fill="url(#paint0_linear)"/>
</g>
<defs>
<filter id="filter0_d" x="0" y="0" width="64" height="64" filterUnits="userSpaceOnUse" color-interpolation-filters="sRGB">
<feFlood flood-opacity="0" result="BackgroundImageFix"/>
<feColorMatrix in="SourceAlpha" type="matrix" values="0 0 0 0 0 0 0 0 0 0 0 0 0 0 0 0 0 0 127 0" result="hardAlpha"/>
<feOffset dx="4" dy="4"/>
<feGaussianBlur stdDeviation="2.5"/>
<feColorMatrix type="matrix" values="0 0 0 0 0 0 0 0 0 0 0 0 0 0 0 0 0 0 0.25 0"/>
<feBlend mode="normal" in2="BackgroundImageFix" result="effect1_dropShadow"/>
<feBlend mode="normal" in="SourceGraphic" in2="effect1_dropShadow" result="shape"/>
</filter>
<linearGradient id="paint0_linear" x1="28" y1="1" x2="28" y2="55" gradientUnits="userSpaceOnUse">
<stop stop-color="#18ACFE"/>
<stop offset="1" stop-color="#0167E2"/>
</linearGradient>
</defs>
</svg>
