<svg width="64" height="64" viewBox="0 0 64 64" fill="none" xmlns="http://www.w3.org/2000/svg">
<g filter="url(#filter0_d)">
<circle cx="28" cy="28" r="27" fill="url(#paint0_linear)"/>
<path d="M28.1773 23.5884C25.6485 23.5884 23.5848 25.6522 23.5848 28.181C23.5848 30.7098 25.6485 32.7736 28.1773 32.7736C30.7061 32.7736 32.7698 30.7098 32.7698 28.181C32.7698 25.6522 30.7061 23.5884 28.1773 23.5884ZM41.9513 28.181C41.9513 26.2792 41.9685 24.3946 41.8617 22.4963C41.7549 20.2913 41.2519 18.3344 39.6395 16.722C38.0237 15.1062 36.0703 14.6066 33.8653 14.4998C31.9636 14.393 30.0791 14.4102 28.1807 14.4102C26.279 14.4102 24.3944 14.393 22.4961 14.4998C20.2912 14.6066 18.3343 15.1096 16.7219 16.722C15.1061 18.3378 14.6066 20.2913 14.4998 22.4963C14.393 24.3981 14.4102 26.2826 14.4102 28.181C14.4102 30.0793 14.393 31.9674 14.4998 33.8657C14.6066 36.0707 15.1096 38.0276 16.7219 39.64C18.3378 41.2558 20.2912 41.7554 22.4961 41.8622C24.3979 41.969 26.2824 41.9518 28.1807 41.9518C30.0825 41.9518 31.967 41.969 33.8653 41.8622C36.0703 41.7554 38.0272 41.2524 39.6395 39.64C41.2553 38.0242 41.7549 36.0707 41.8617 33.8657C41.9719 31.9674 41.9513 30.0828 41.9513 28.181ZM28.1773 35.2473C24.267 35.2473 21.1112 32.0914 21.1112 28.181C21.1112 24.2706 24.267 21.1147 28.1773 21.1147C32.0876 21.1147 35.2434 24.2706 35.2434 28.181C35.2434 32.0914 32.0876 35.2473 28.1773 35.2473ZM35.5328 22.4756C34.6199 22.4756 33.8826 21.7383 33.8826 20.8253C33.8826 19.9123 34.6199 19.175 35.5328 19.175C36.4458 19.175 37.1831 19.9123 37.1831 20.8253C37.1834 21.0421 37.1409 21.2568 37.058 21.4572C36.9752 21.6575 36.8536 21.8396 36.7003 21.9929C36.5471 22.1462 36.365 22.2677 36.1647 22.3505C35.9643 22.4334 35.7496 22.4759 35.5328 22.4756Z" fill="white"/>
</g>
<defs>
<filter id="filter0_d" x="0" y="0" width="64" height="64" filterUnits="userSpaceOnUse" color-interpolation-filters="sRGB">
<feFlood flood-opacity="0" result="BackgroundImageFix"/>
<feColorMatrix in="SourceAlpha" type="matrix" values="0 0 0 0 0 0 0 0 0 0 0 0 0 0 0 0 0 0 127 0" result="hardAlpha"/>
<feOffset dx="4" dy="4"/>
<feGaussianBlur stdDeviation="2.5"/>
<feColorMatrix type="matrix" values="0 0 0 0 0 0 0 0 0 0 0 0 0 0 0 0 0 0 0.25 0"/>
<feBlend mode="normal" in2="BackgroundImageFix" result="effect1_dropShadow"/>
<feBlend mode="normal" in="SourceGraphic" in2="effect1_dropShadow" result="shape"/>
</filter>
<linearGradient id="paint0_linear" x1="36.6448" y1="7.76565" x2="19.3924" y2="49.0361" gradientUnits="userSpaceOnUse">
<stop stop-color="#525CCF"/>
<stop offset="0.479167" stop-color="#D92D76"/>
<stop offset="1" stop-color="#FDB94D"/>
</linearGradient>
</defs>
</svg>
