<svg width="64" height="64" viewBox="0 0 64 64" fill="none" xmlns="http://www.w3.org/2000/svg">
<g filter="url(#filter0_d)">
<circle cx="28" cy="28" r="27" fill="white"/>
<path d="M31.6363 36.0707C33.471 35.6473 35.222 34.9163 36.8162 33.908C37.3783 33.5257 37.7707 32.9381 37.9105 32.2695C38.0503 31.6008 37.9265 30.9036 37.5652 30.3253C37.204 29.747 36.6338 29.333 35.9751 29.1708C35.3164 29.0087 34.6209 29.1112 34.0358 29.4566C32.2358 30.589 30.1564 31.1895 28.0343 31.1895C25.9123 31.1895 23.8329 30.589 22.0328 29.4566C21.4484 29.0853 20.7418 28.9625 20.0678 29.1151C19.3938 29.2678 18.8073 29.6834 18.4367 30.271V30.2764C18.2536 30.5682 18.1295 30.8935 18.0714 31.2337C18.0133 31.5739 18.0224 31.9223 18.0982 32.259C18.174 32.5957 18.3149 32.914 18.513 33.1956C18.711 33.4773 18.9623 33.7168 19.2524 33.9004L19.2567 33.9058C20.8468 34.9143 22.595 35.6441 24.4269 36.0642L19.4423 41.0865C18.9542 41.5692 18.676 42.2274 18.6688 42.9165C18.6615 43.6057 18.9257 44.2696 19.4034 44.7627L19.4477 44.8073C19.9429 45.3216 20.6118 45.5771 21.2808 45.5771C21.9497 45.5771 22.6176 45.3216 23.1117 44.8073L28.0349 39.8741L32.9289 44.8138C33.969 45.8152 35.6208 45.7924 36.622 44.7453C37.0919 44.2551 37.3546 43.6002 37.3546 42.9186C37.3546 42.237 37.0919 41.5821 36.622 41.0919L31.6363 36.0707ZM28.0338 28.7433C30.3962 28.7418 32.6615 27.7957 34.3324 26.1127C36.0032 24.4296 36.9431 22.1472 36.9457 19.7664C36.9457 14.8169 32.9451 10.7852 28.0338 10.7852C23.1225 10.7852 19.1218 14.8169 19.1218 19.7664C19.1244 22.1477 20.0641 24.4307 21.7349 26.1146C23.4056 27.7985 25.6709 28.7458 28.0338 28.7487V28.7433ZM28.0338 16.0521C29.0111 16.0527 29.9482 16.4442 30.6393 17.1406C31.3303 17.8371 31.7188 18.7815 31.7194 19.7664C31.7191 20.7521 31.331 21.6974 30.64 22.3952C29.9491 23.0929 29.0119 23.486 28.0338 23.4883C27.0553 23.4857 26.1176 23.0927 25.4259 22.3952C24.7342 21.6977 24.3448 20.7525 24.3428 19.7664C24.3462 18.7809 24.7361 17.8368 25.4276 17.14C26.1191 16.4431 27.0559 16.0501 28.0338 16.0467V16.0521Z" fill="#F1882F"/>
</g>
<defs>
<filter id="filter0_d" x="0" y="0" width="64" height="64" filterUnits="userSpaceOnUse" color-interpolation-filters="sRGB">
<feFlood flood-opacity="0" result="BackgroundImageFix"/>
<feColorMatrix in="SourceAlpha" type="matrix" values="0 0 0 0 0 0 0 0 0 0 0 0 0 0 0 0 0 0 127 0" result="hardAlpha"/>
<feOffset dx="4" dy="4"/>
<feGaussianBlur stdDeviation="2.5"/>
<feColorMatrix type="matrix" values="0 0 0 0 0 0 0 0 0 0 0 0 0 0 0 0 0 0 0.25 0"/>
<feBlend mode="normal" in2="BackgroundImageFix" result="effect1_dropShadow"/>
<feBlend mode="normal" in="SourceGraphic" in2="effect1_dropShadow" result="shape"/>
</filter>
</defs>
</svg>
