<svg width="64" height="64" viewBox="0 0 64 64" fill="none" xmlns="http://www.w3.org/2000/svg">
<g filter="url(#filter0_d)">
<circle cx="28" cy="28" r="27" fill="white"/>
<path d="M28 1C13.0881 1 1 13.0881 1 28C1 42.9119 13.0881 55 28 55C42.9119 55 55 42.9119 55 28C55 13.0881 42.9119 1 28 1ZM38.3838 31.4622C38.3838 31.4622 40.7716 33.8191 41.3594 34.9131C41.3763 34.9356 41.3847 34.9581 41.3903 34.9694C41.6294 35.3716 41.6856 35.6838 41.5675 35.9172C41.3706 36.3053 40.6956 36.4966 40.465 36.5134H36.2463C35.9538 36.5134 35.3406 36.4375 34.5981 35.9256C34.0272 35.5262 33.4647 34.8709 32.9163 34.2325C32.0978 33.2819 31.3891 32.4606 30.6747 32.4606C30.584 32.4605 30.4938 32.4747 30.4075 32.5028C29.8675 32.6772 29.1756 33.4478 29.1756 35.5009C29.1756 36.1422 28.6694 36.5106 28.3122 36.5106H26.38C25.7219 36.5106 22.2934 36.28 19.2559 33.0766C15.5378 29.1531 12.1909 21.2838 12.1628 21.2106C11.9519 20.7016 12.3878 20.4287 12.8631 20.4287H17.1241C17.6922 20.4287 17.8778 20.7747 18.0072 21.0813C18.1591 21.4384 18.7159 22.8588 19.63 24.4563C21.1122 27.0606 22.0206 28.1181 22.7491 28.1181C22.8857 28.1165 23.0198 28.0818 23.14 28.0169C24.0906 27.4881 23.9134 24.0991 23.8713 23.3959C23.8713 23.2638 23.8684 21.88 23.3819 21.2162C23.0331 20.7353 22.4397 20.5525 22.0797 20.485C22.2254 20.2839 22.4174 20.1209 22.6394 20.0097C23.2919 19.6834 24.4675 19.6356 25.6347 19.6356H26.2844C27.55 19.6525 27.8763 19.7341 28.3347 19.8494C29.2628 20.0716 29.2825 20.6706 29.2009 22.7209C29.1756 23.3031 29.1503 23.9613 29.1503 24.7375C29.1503 24.9062 29.1419 25.0863 29.1419 25.2775C29.1138 26.3209 29.08 27.505 29.8169 27.9916C29.913 28.0518 30.0241 28.084 30.1375 28.0844C30.3934 28.0844 31.1641 28.0844 33.2509 24.5041C33.8945 23.3517 34.4538 22.1542 34.9244 20.9209C34.9666 20.8478 35.0903 20.6228 35.2366 20.5356C35.3445 20.4806 35.4642 20.4526 35.5853 20.4541H40.5944C41.14 20.4541 41.5141 20.5356 41.5844 20.7466C41.7081 21.0812 41.5619 22.1022 39.2753 25.1987L38.2544 26.5459C36.1816 29.2628 36.1816 29.4006 38.3838 31.4622Z" fill="#5181B8"/>
</g>
<defs>
<filter id="filter0_d" x="0" y="0" width="64" height="64" filterUnits="userSpaceOnUse" color-interpolation-filters="sRGB">
<feFlood flood-opacity="0" result="BackgroundImageFix"/>
<feColorMatrix in="SourceAlpha" type="matrix" values="0 0 0 0 0 0 0 0 0 0 0 0 0 0 0 0 0 0 127 0" result="hardAlpha"/>
<feOffset dx="4" dy="4"/>
<feGaussianBlur stdDeviation="2.5"/>
<feColorMatrix type="matrix" values="0 0 0 0 0 0 0 0 0 0 0 0 0 0 0 0 0 0 0.25 0"/>
<feBlend mode="normal" in2="BackgroundImageFix" result="effect1_dropShadow"/>
<feBlend mode="normal" in="SourceGraphic" in2="effect1_dropShadow" result="shape"/>
</filter>
</defs>
</svg>
