<svg width="64" height="64" viewBox="0 0 64 64" fill="none" xmlns="http://www.w3.org/2000/svg">
<g filter="url(#filter0_d)">
<circle cx="28" cy="28" r="27" fill="white"/>
<path d="M36.8292 40.385L41.2589 19.5022C41.4397 18.6183 41.3343 17.9855 40.9425 17.6038C40.5508 17.2221 40.0335 17.1518 39.3906 17.3929L13.3549 27.4275C12.7723 27.6484 12.3756 27.8996 12.1646 28.1808C11.9537 28.4621 11.9286 28.7282 12.0893 28.9794C12.25 29.2305 12.5714 29.4263 13.0536 29.567L19.7132 31.6462L35.1719 21.9129C35.5938 21.6317 35.9152 21.5714 36.1362 21.7321C36.2768 21.8326 36.2366 21.9833 36.0156 22.1842L23.51 33.4844L23.0279 40.3549C23.49 40.3549 23.942 40.1339 24.3839 39.692L27.6384 36.558L34.3884 41.5301C35.6741 42.2533 36.4877 41.8717 36.8292 40.385ZM55 28C55 31.6562 54.2868 35.1518 52.8605 38.4866C51.4342 41.8214 49.5156 44.6942 47.1049 47.1049C44.6942 49.5156 41.8214 51.4342 38.4866 52.8605C35.1518 54.2868 31.6562 55 28 55C24.3438 55 20.8482 54.2868 17.5134 52.8605C14.1786 51.4342 11.3058 49.5156 8.89509 47.1049C6.48438 44.6942 4.56585 41.8214 3.13951 38.4866C1.71317 35.1518 1 31.6562 1 28C1 24.3438 1.71317 20.8482 3.13951 17.5134C4.56585 14.1786 6.48438 11.3058 8.89509 8.89509C11.3058 6.48438 14.1786 4.56585 17.5134 3.13951C20.8482 1.71317 24.3438 1 28 1C31.6562 1 35.1518 1.71317 38.4866 3.13951C41.8214 4.56585 44.6942 6.48438 47.1049 8.89509C49.5156 11.3058 51.4342 14.1786 52.8605 17.5134C54.2868 20.8482 55 24.3438 55 28Z" fill="#25A2E0"/>
</g>
<defs>
<filter id="filter0_d" x="0" y="0" width="64" height="64" filterUnits="userSpaceOnUse" color-interpolation-filters="sRGB">
<feFlood flood-opacity="0" result="BackgroundImageFix"/>
<feColorMatrix in="SourceAlpha" type="matrix" values="0 0 0 0 0 0 0 0 0 0 0 0 0 0 0 0 0 0 127 0" result="hardAlpha"/>
<feOffset dx="4" dy="4"/>
<feGaussianBlur stdDeviation="2.5"/>
<feColorMatrix type="matrix" values="0 0 0 0 0 0 0 0 0 0 0 0 0 0 0 0 0 0 0.25 0"/>
<feBlend mode="normal" in2="BackgroundImageFix" result="effect1_dropShadow"/>
<feBlend mode="normal" in="SourceGraphic" in2="effect1_dropShadow" result="shape"/>
</filter>
</defs>
</svg>
