<svg width="64" height="64" viewBox="0 0 64 64" fill="none" xmlns="http://www.w3.org/2000/svg">
<g filter="url(#filter0_d)">
<circle cx="28" cy="28" r="27" fill="url(#paint0_linear)"/>
<path d="M27.7718 15.209C25.8454 15.209 21.0799 15.4139 18.5451 17.8723C16.7201 19.6137 16.0103 22.277 15.9089 25.4524C15.7062 30.4717 16.8215 33.6472 18.6465 35.2862C19.0521 35.5935 20.066 36.4129 21.9925 37.0275V39.5884C21.9925 39.5884 21.9925 40.6127 22.6008 40.8176C22.7022 40.8176 22.8036 40.9201 22.905 40.9201C23.5134 40.9201 24.0203 40.203 24.7301 39.486C25.3384 38.7689 25.8454 38.2568 26.1496 37.7446H28.3802C30.3067 37.7446 35.0721 37.5397 37.6069 35.0813C39.432 33.2375 40.1417 30.5742 40.1417 27.1938C40.2431 26.6817 40.2431 26.067 40.2431 25.4524C40.1417 21.6624 39.0264 19.1015 37.5055 17.6674C36.8972 17.1552 34.261 15.209 28.583 15.209H27.7718ZM27.5691 17.1552H28.4816C33.8554 17.1552 35.8832 18.8966 36.086 19.1015C37.3027 20.1258 38.0125 22.3794 38.1139 25.35V25.7597C38.2153 26.3743 38.2153 26.8865 38.2153 27.1938C38.1139 30.2669 37.5055 32.3155 36.2888 33.6472C34.1596 35.5935 29.6983 35.6959 28.4816 35.6959H26.5551L24.9329 37.5397L23.9189 38.6665L23.7161 38.9738C23.5134 39.1787 23.2092 39.5884 23.0064 39.6908V35.0813C20.9786 34.5691 20.1674 33.8521 19.9646 33.6472C18.5451 32.418 17.734 29.4474 17.9368 25.4524V24.4281C18.1396 21.9697 18.7479 20.3307 19.7618 19.2039C21.8911 17.2577 26.3524 17.1552 27.5691 17.1552ZM27.4677 19.4088C26.9607 19.4088 26.9607 20.1258 27.4677 20.1258C31.2192 20.1258 34.4637 22.6867 34.4637 27.5011C34.4637 28.0133 35.1735 28.0133 35.1735 27.5011C35.1735 22.277 31.7261 19.3064 27.4677 19.4088ZM23.4495 20.3563C23.2198 20.3285 22.9884 20.3925 22.8046 20.5346C21.7907 21.0467 20.7758 22.0731 21.0799 23.1999C21.0799 23.1999 21.2827 24.1208 22.398 26.067C23.0064 26.989 23.5134 27.8084 24.0203 28.423C24.5273 29.1401 25.3384 29.9596 26.1496 30.5742C27.7718 31.9058 30.3067 33.2375 31.422 33.5448C32.4359 33.8521 33.5512 32.8277 34.0582 31.8034C34.261 31.3936 34.1596 30.8815 33.754 30.5742C33.1456 29.9596 32.1317 29.2425 31.422 28.8328C30.915 28.5255 30.3067 28.7303 30.1039 29.0376L29.5969 29.6523C29.3941 29.9596 28.8872 29.9596 28.8872 29.9596C25.5412 29.0376 24.6287 25.5549 24.6287 25.5549C24.6287 25.5549 24.6287 25.1451 24.9329 24.8378L25.5412 24.3257C25.8454 24.1208 26.0482 23.5062 25.744 22.994C25.5412 22.6867 25.237 22.0721 24.9329 21.7648C24.6287 21.3551 24.0203 20.638 24.0203 20.638C23.8665 20.4824 23.6656 20.3832 23.4495 20.3563ZM28.1774 21.4575C27.6705 21.3551 27.5691 22.1745 28.076 22.1745C30.915 22.3794 32.5373 24.3257 32.4359 26.7841C32.3345 27.2963 33.1456 27.2963 33.1456 26.7841C33.247 23.9159 31.422 21.5599 28.1774 21.4575ZM28.4816 23.4037C27.9746 23.3013 27.9746 24.1208 28.4816 24.1208C29.6983 24.1208 30.3067 24.8378 30.3067 26.067C30.408 26.5792 31.1178 26.5792 31.1178 26.067C31.0164 24.4281 30.1039 23.4037 28.4816 23.4037Z" fill="white"/>
</g>
<defs>
<filter id="filter0_d" x="0" y="0" width="64" height="64" filterUnits="userSpaceOnUse" color-interpolation-filters="sRGB">
<feFlood flood-opacity="0" result="BackgroundImageFix"/>
<feColorMatrix in="SourceAlpha" type="matrix" values="0 0 0 0 0 0 0 0 0 0 0 0 0 0 0 0 0 0 127 0" result="hardAlpha"/>
<feOffset dx="4" dy="4"/>
<feGaussianBlur stdDeviation="2.5"/>
<feColorMatrix type="matrix" values="0 0 0 0 0 0 0 0 0 0 0 0 0 0 0 0 0 0 0.25 0"/>
<feBlend mode="normal" in2="BackgroundImageFix" result="effect1_dropShadow"/>
<feBlend mode="normal" in="SourceGraphic" in2="effect1_dropShadow" result="shape"/>
</filter>
<linearGradient id="paint0_linear" x1="16" y1="1" x2="44" y2="55" gradientUnits="userSpaceOnUse">
<stop stop-color="#B191CA"/>
<stop offset="1" stop-color="#6F3F93"/>
</linearGradient>
</defs>
</svg>
