<svg width="64" height="64" viewBox="0 0 64 64" fill="none" xmlns="http://www.w3.org/2000/svg">
<g filter="url(#filter0_d)">
<circle cx="28" cy="28" r="27" fill="#43EA61"/>
<path d="M33.846 30.5866C33.5332 30.4259 31.9751 29.6626 31.6853 29.5593C31.3955 29.4502 31.1831 29.3986 30.9737 29.72C30.7613 30.0385 30.1587 30.7473 29.9693 30.9625C29.7857 31.1748 29.5992 31.2006 29.2864 31.0428C27.4269 30.1131 26.2074 29.3842 24.9821 27.2809C24.6579 26.7213 25.3064 26.7615 25.9118 25.5535C26.0152 25.3411 25.9635 25.1603 25.8832 24.9996C25.8028 24.8389 25.1715 23.2837 24.9075 22.6495C24.6521 22.0326 24.3881 22.1187 24.1959 22.1072C24.0122 22.0957 23.8028 22.0957 23.5904 22.0957C23.3781 22.0957 23.0366 22.176 22.7468 22.4888C22.457 22.8073 21.6392 23.5735 21.6392 25.1288C21.6392 26.684 22.7726 28.1905 22.9276 28.4029C23.0883 28.6152 25.1572 31.8061 28.3337 33.1806C30.3424 34.0472 31.1286 34.1218 32.1329 33.9726C32.7441 33.8807 34.0038 33.2093 34.265 32.4661C34.5261 31.7258 34.5261 31.0916 34.4486 30.9596C34.3711 30.819 34.1588 30.7386 33.846 30.5866Z" fill="white"/>
<path d="M39.9213 23.0829C39.2728 21.542 38.3431 20.1589 37.158 18.9709C35.9729 17.7858 34.5898 16.8532 33.046 16.2076C31.4677 15.5447 29.792 15.209 28.0645 15.209H28.0071C26.2682 15.2176 24.5838 15.5619 22.9998 16.2391C21.4704 16.8934 20.0988 17.8231 18.9252 19.0082C17.7515 20.1933 16.8304 21.5707 16.1934 23.1059C15.5334 24.6956 15.2005 26.3857 15.2091 28.1246C15.2178 30.1161 15.6941 32.0931 16.5865 33.8608V38.2224C16.5865 38.9513 17.1776 39.5424 17.9065 39.5424H22.271C24.0386 40.4348 26.0157 40.9111 28.0071 40.9197H28.0674C29.7862 40.9197 31.4534 40.5869 33.023 39.9355C34.5582 39.2956 35.9384 38.3774 37.1207 37.2037C38.3058 36.0301 39.2384 34.6585 39.8897 33.129C40.5669 31.5451 40.9113 29.8607 40.9199 28.1217C40.9285 26.3742 40.5899 24.6783 39.9213 23.0829ZM35.5855 35.6513C33.574 37.6428 30.9053 38.7389 28.0645 38.7389H28.0157C26.2854 38.7303 24.5666 38.2999 23.0486 37.4907L22.8076 37.3615H18.7673V33.3213L18.6382 33.0802C17.829 31.5623 17.3986 29.8435 17.39 28.1131C17.3785 25.2522 18.4718 22.5664 20.4776 20.5434C22.4805 18.5204 25.1577 17.4013 28.0186 17.3898H28.0674C29.5021 17.3898 30.8938 17.6681 32.2052 18.2191C33.485 18.7557 34.6328 19.5276 35.6199 20.5147C36.6042 21.4989 37.3789 22.6496 37.9155 23.9294C38.4722 25.2551 38.7505 26.6612 38.7448 28.1131C38.7276 30.9712 37.6056 33.6484 35.5855 35.6513Z" fill="white"/>
</g>
<defs>
<filter id="filter0_d" x="0" y="0" width="64" height="64" filterUnits="userSpaceOnUse" color-interpolation-filters="sRGB">
<feFlood flood-opacity="0" result="BackgroundImageFix"/>
<feColorMatrix in="SourceAlpha" type="matrix" values="0 0 0 0 0 0 0 0 0 0 0 0 0 0 0 0 0 0 127 0" result="hardAlpha"/>
<feOffset dx="4" dy="4"/>
<feGaussianBlur stdDeviation="2.5"/>
<feColorMatrix type="matrix" values="0 0 0 0 0 0 0 0 0 0 0 0 0 0 0 0 0 0 0.25 0"/>
<feBlend mode="normal" in2="BackgroundImageFix" result="effect1_dropShadow"/>
<feBlend mode="normal" in="SourceGraphic" in2="effect1_dropShadow" result="shape"/>
</filter>
</defs>
</svg>
