<svg width="99" height="99" viewBox="0 0 99 99" fill="none" xmlns="http://www.w3.org/2000/svg">
<g filter="url(#filter0_d)">
<circle cx="44.5" cy="44.5" r="39.5" fill="white"/>
<path d="M44.5 5C22.6845 5 5 22.6845 5 44.5C5 66.3155 22.6845 84 44.5 84C66.3155 84 84 66.3155 84 44.5C84 22.6845 66.3155 5 44.5 5ZM53.8566 32.2961H47.9192C47.2156 32.2961 46.4339 33.2219 46.4339 34.4522V38.7396H53.8607L52.7374 44.8539H46.4339V63.209H39.4267V44.8539H33.0697V38.7396H39.4267V35.1434C39.4267 29.9837 43.0064 25.791 47.9192 25.791H53.8566V32.2961Z" fill="url(#paint0_linear)"/>
</g>
<defs>
<filter id="filter0_d" x="0" y="0" width="99" height="99" filterUnits="userSpaceOnUse" color-interpolation-filters="sRGB">
<feFlood flood-opacity="0" result="BackgroundImageFix"/>
<feColorMatrix in="SourceAlpha" type="matrix" values="0 0 0 0 0 0 0 0 0 0 0 0 0 0 0 0 0 0 127 0" result="hardAlpha"/>
<feOffset dx="5" dy="5"/>
<feGaussianBlur stdDeviation="5"/>
<feColorMatrix type="matrix" values="0 0 0 0 0 0 0 0 0 0 0 0 0 0 0 0 0 0 0.25 0"/>
<feBlend mode="normal" in2="BackgroundImageFix" result="effect1_dropShadow"/>
<feBlend mode="normal" in="SourceGraphic" in2="effect1_dropShadow" result="shape"/>
</filter>
<linearGradient id="paint0_linear" x1="44.5" y1="5" x2="44.5" y2="84" gradientUnits="userSpaceOnUse">
<stop stop-color="#18ACFE"/>
<stop offset="1" stop-color="#0167E2"/>
</linearGradient>
</defs>
</svg>
