<svg width="99" height="99" viewBox="0 0 99 99" fill="none" xmlns="http://www.w3.org/2000/svg">
<g filter="url(#filter0_d)">
<circle cx="44.5" cy="44.5" r="39.5" fill="url(#paint0_linear)"/>
<path d="M44.7597 38.0461C41.0602 38.0461 38.0411 41.0652 38.0411 44.7648C38.0411 48.4644 41.0602 51.4836 44.7597 51.4836C48.4592 51.4836 51.4783 48.4644 51.4783 44.7648C51.4783 41.0652 48.4592 38.0461 44.7597 38.0461ZM64.9105 44.7648C64.9105 41.9826 64.9357 39.2255 64.7795 36.4483C64.6232 33.2225 63.8873 30.3596 61.5285 28.0007C59.1647 25.6368 56.3068 24.906 53.0811 24.7497C50.2989 24.5935 47.5419 24.6187 44.7647 24.6187C41.9825 24.6187 39.2255 24.5935 36.4484 24.7497C33.2226 24.906 30.3598 25.6419 28.0009 28.0007C25.6371 30.3647 24.9062 33.2225 24.75 36.4483C24.5937 39.2306 24.6189 41.9876 24.6189 44.7648C24.6189 47.5421 24.5937 50.3042 24.75 53.0814C24.9062 56.3072 25.6421 59.1701 28.0009 61.5289C30.3648 63.8929 33.2226 64.6237 36.4484 64.7799C39.2306 64.9362 41.9876 64.911 44.7647 64.911C47.5469 64.911 50.3039 64.9362 53.0811 64.7799C56.3068 64.6237 59.1697 63.8878 61.5285 61.5289C63.8924 59.165 64.6232 56.3072 64.7795 53.0814C64.9408 50.3042 64.9105 47.5471 64.9105 44.7648ZM44.7597 55.1025C39.039 55.1025 34.4222 50.4856 34.4222 44.7648C34.4222 39.0441 39.039 34.4271 44.7597 34.4271C50.4803 34.4271 55.0972 39.0441 55.0972 44.7648C55.0972 50.4856 50.4803 55.1025 44.7597 55.1025ZM55.5206 36.4181C54.1849 36.4181 53.1063 35.3394 53.1063 34.0038C53.1063 32.6681 54.1849 31.5894 55.5206 31.5894C56.8562 31.5894 57.9348 32.6681 57.9348 34.0038C57.9352 34.3209 57.8731 34.6351 57.7519 34.9281C57.6307 35.2212 57.4529 35.4876 57.2286 35.7118C57.0043 35.9361 56.738 36.1139 56.4449 36.2351C56.1518 36.3563 55.8377 36.4185 55.5206 36.4181Z" fill="white"/>
</g>
<defs>
<filter id="filter0_d" x="0" y="0" width="99" height="99" filterUnits="userSpaceOnUse" color-interpolation-filters="sRGB">
<feFlood flood-opacity="0" result="BackgroundImageFix"/>
<feColorMatrix in="SourceAlpha" type="matrix" values="0 0 0 0 0 0 0 0 0 0 0 0 0 0 0 0 0 0 127 0" result="hardAlpha"/>
<feOffset dx="5" dy="5"/>
<feGaussianBlur stdDeviation="5"/>
<feColorMatrix type="matrix" values="0 0 0 0 0 0 0 0 0 0 0 0 0 0 0 0 0 0 0.25 0"/>
<feBlend mode="normal" in2="BackgroundImageFix" result="effect1_dropShadow"/>
<feBlend mode="normal" in="SourceGraphic" in2="effect1_dropShadow" result="shape"/>
</filter>
<linearGradient id="paint0_linear" x1="57.147" y1="14.8979" x2="31.9074" y2="75.275" gradientUnits="userSpaceOnUse">
<stop stop-color="#525CCF"/>
<stop offset="0.479167" stop-color="#D92D76"/>
<stop offset="1" stop-color="#FDB94D"/>
</linearGradient>
</defs>
</svg>
