<svg width="99" height="99" viewBox="0 0 99 99" fill="none" xmlns="http://www.w3.org/2000/svg">
<g filter="url(#filter0_d)">
<circle cx="44.5" cy="44.5" r="38" fill="white" stroke="white" stroke-width="3"/>
<path d="M49.8196 56.3072C52.5037 55.6879 55.0653 54.6183 57.3976 53.1433C58.2199 52.5841 58.794 51.7244 58.9985 50.7462C59.203 49.768 59.0219 48.7479 58.4934 47.9019C57.965 47.0559 57.1307 46.4502 56.167 46.213C55.2034 45.9758 54.186 46.1257 53.33 46.631C50.6966 48.2878 47.6545 49.1662 44.55 49.1662C41.4455 49.1662 38.4034 48.2878 35.77 46.631C34.9151 46.0878 33.8814 45.9082 32.8953 46.1315C31.9093 46.3548 31.0512 46.9628 30.5091 47.8224V47.8304C30.2412 48.2572 30.0596 48.7332 29.9746 49.2309C29.8896 49.7286 29.903 50.2383 30.0138 50.7309C30.1247 51.2234 30.3309 51.689 30.6206 52.1011C30.9104 52.5132 31.278 52.8636 31.7024 53.1322L31.7087 53.1401C34.035 54.6155 36.5924 55.6831 39.2725 56.2977L31.9802 63.6451C31.2662 64.3514 30.8592 65.3142 30.8485 66.3224C30.8379 67.3306 31.2244 68.3019 31.9233 69.0233L31.9881 69.0885C32.7126 69.8409 33.6912 70.2148 34.6698 70.2148C35.6484 70.2148 36.6255 69.8409 37.3484 69.0885L44.5508 61.8715L51.7106 69.0981C53.2322 70.5631 55.6487 70.5297 57.1135 68.9979C57.801 68.2807 58.1852 67.3226 58.1852 66.3255C58.1852 65.3284 57.801 64.3702 57.1135 63.6531L49.8196 56.3072ZM44.5492 45.5875C48.0053 45.5854 51.3194 44.2013 53.7638 41.739C56.2083 39.2768 57.5833 35.9376 57.5871 32.4546C57.5871 25.2138 51.7342 19.3154 44.5492 19.3154C37.3642 19.3154 31.5114 25.2138 31.5114 32.4546C31.5151 35.9384 32.8899 39.2783 35.3341 41.7418C37.7783 44.2054 41.0924 45.5912 44.5492 45.5954V45.5875ZM44.5492 27.0208C45.979 27.0216 47.35 27.5944 48.361 28.6133C49.372 29.6321 49.9403 31.0138 49.9411 32.4546C49.9407 33.8967 49.3729 35.2797 48.3621 36.3004C47.3513 37.3211 45.9801 37.8962 44.5492 37.8996C43.1177 37.8958 41.7459 37.3209 40.734 36.3004C39.7221 35.28 39.1523 33.8973 39.1494 32.4546C39.1544 31.0129 39.7249 29.6317 40.7365 28.6123C41.7481 27.5928 43.1186 27.0179 44.5492 27.0128V27.0208Z" fill="#F1882F"/>
</g>
<defs>
<filter id="filter0_d" x="0" y="0" width="99" height="99" filterUnits="userSpaceOnUse" color-interpolation-filters="sRGB">
<feFlood flood-opacity="0" result="BackgroundImageFix"/>
<feColorMatrix in="SourceAlpha" type="matrix" values="0 0 0 0 0 0 0 0 0 0 0 0 0 0 0 0 0 0 127 0" result="hardAlpha"/>
<feOffset dx="5" dy="5"/>
<feGaussianBlur stdDeviation="5"/>
<feColorMatrix type="matrix" values="0 0 0 0 0 0 0 0 0 0 0 0 0 0 0 0 0 0 0.25 0"/>
<feBlend mode="normal" in2="BackgroundImageFix" result="effect1_dropShadow"/>
<feBlend mode="normal" in="SourceGraphic" in2="effect1_dropShadow" result="shape"/>
</filter>
</defs>
</svg>
