<svg width="79" height="79" viewBox="0 0 79 79" fill="none" xmlns="http://www.w3.org/2000/svg">
<path d="M39.5 0C17.6845 0 0 17.6845 0 39.5C0 61.3155 17.6845 79 39.5 79C61.3155 79 79 61.3155 79 39.5C79 17.6845 61.3155 0 39.5 0ZM54.691 44.565C54.691 44.565 58.1843 48.0131 59.0443 49.6136C59.069 49.6466 59.0813 49.6795 59.0895 49.6959C59.4393 50.2843 59.5216 50.741 59.3488 51.0826C59.0607 51.6504 58.0732 51.9302 57.7358 51.9548H51.564C51.136 51.9548 50.2391 51.8437 49.1528 51.0949C48.3175 50.5106 47.4946 49.5519 46.6923 48.6179C45.4949 47.2272 44.4581 46.0257 43.413 46.0257C43.2802 46.0255 43.1483 46.0463 43.0221 46.0874C42.2321 46.3425 41.2199 47.4699 41.2199 50.4736C41.2199 51.4117 40.4793 51.9507 39.9567 51.9507H37.13C36.1672 51.9507 31.1515 51.6133 26.7078 46.9268C21.2683 41.187 16.3719 29.6744 16.3308 29.5674C16.0222 28.8227 16.6599 28.4235 17.3553 28.4235H23.5889C24.42 28.4235 24.6916 28.9296 24.8809 29.3781C25.1031 29.9007 25.9178 31.9785 27.255 34.3156C29.4234 38.1257 30.7524 39.6728 31.8181 39.6728C32.0179 39.6705 32.2142 39.6196 32.39 39.5247C33.7807 38.7511 33.5215 33.7931 33.4598 32.7644C33.4598 32.571 33.4557 30.5467 32.7439 29.5756C32.2336 28.872 31.3655 28.6046 30.8388 28.5058C31.052 28.2117 31.3328 27.9732 31.6576 27.8105C32.6122 27.3332 34.3321 27.2632 36.0396 27.2632H36.9901C38.8417 27.2879 39.319 27.4072 39.9896 27.5759C41.3474 27.901 41.3762 28.7774 41.2569 31.7769C41.2199 32.6286 41.1829 33.5915 41.1829 34.7271C41.1829 34.974 41.1705 35.2373 41.1705 35.5171C41.1294 37.0436 41.08 38.7758 42.158 39.4877C42.2986 39.5758 42.4611 39.6229 42.6271 39.6234C43.0015 39.6234 44.1289 39.6234 47.1819 34.3856C48.1235 32.6997 48.9417 30.9477 49.6301 29.1436C49.6918 29.0366 49.8729 28.7074 50.0868 28.5799C50.2447 28.4994 50.4198 28.4584 50.597 28.4606H57.9251C58.7233 28.4606 59.2706 28.5799 59.3734 28.8885C59.5545 29.3781 59.3405 30.8717 55.9954 35.4019L54.5018 37.3728C51.4693 41.3474 51.4693 41.5491 54.691 44.565Z" fill="#5181B8"/>
</svg>
