<svg width="43" height="43" viewBox="0 0 43 43" fill="none" xmlns="http://www.w3.org/2000/svg">
<path d="M4.76185 16.916C4.40694 18.2976 4.22791 19.7185 4.229 21.145C4.229 22.604 4.41507 24.0207 4.76185 25.374H10.7839C10.4989 22.5619 10.4989 19.7281 10.7839 16.916H4.76185ZM6.49151 12.687H11.4521C12.0146 10.1136 12.8265 7.80884 13.8225 5.89099C10.7526 7.36992 8.19837 9.73776 6.49151 12.687ZM37.5281 16.916H31.506C31.7911 19.7281 31.7911 22.5619 31.506 25.374H37.5281C38.24 22.5996 38.24 19.6904 37.5281 16.916ZM35.7985 12.687C34.0916 9.73776 31.5374 7.36992 28.4675 5.89099C29.4655 7.80884 30.2754 10.1136 30.8379 12.687H35.7985ZM15.0383 16.916C14.8799 18.3201 14.8008 19.732 14.8015 21.145C14.8015 22.5934 14.8818 24.0101 15.0383 25.374H27.2517C27.5701 22.5636 27.5701 19.7263 27.2517 16.916H15.0383ZM15.7953 12.687H26.4947C26.1099 11.0975 25.5548 9.55418 24.839 8.08373C23.5111 5.43003 22.0902 4.229 21.145 4.229C20.1977 4.229 18.7789 5.43003 17.451 8.08373C16.7849 9.42009 16.2246 10.9742 15.7953 12.687ZM6.49151 29.603C8.19837 32.5522 10.7526 34.9201 13.8225 36.399C12.8244 34.4811 12.0146 32.1763 11.4521 29.603H6.49151ZM35.7985 29.603H30.8379C30.2754 32.1763 29.4634 34.4811 28.4675 36.399C31.5374 34.9201 34.0916 32.5522 35.7985 29.603ZM15.7953 29.603C16.2246 31.3157 16.7849 32.8699 17.451 34.2062C18.7789 36.8599 20.1998 38.061 21.145 38.061C22.0923 38.061 23.5111 36.8599 24.839 34.2062C25.5051 32.8699 26.0654 31.3157 26.4947 29.603H15.7953ZM21.145 42.29C9.46661 42.29 0 32.8234 0 21.145C0 9.46661 9.46661 0 21.145 0C32.8234 0 42.29 9.46661 42.29 21.145C42.29 32.8234 32.8234 42.29 21.145 42.29Z" fill="url(#paint0_linear)"/>
<defs>
<linearGradient id="paint0_linear" x1="13" y1="-4.12257e-07" x2="32.5" y2="42" gradientUnits="userSpaceOnUse">
<stop stop-color="#747474"/>
<stop offset="1"/>
</linearGradient>
</defs>
</svg>
