<svg width="81" height="81" viewBox="0 0 81 81" fill="none" xmlns="http://www.w3.org/2000/svg">
<circle cx="40.5238" cy="40.9001" r="39.905" fill="url(#paint0_linear)"/>
<path d="M54.6188 20.9951L54.6144 49.1618C54.6144 51.855 51.7522 55.6618 46.3688 55.6618C43.6342 55.6618 41.4188 54.247 41.4188 51.5993C41.4188 48.1565 44.5978 46.0743 48.0188 46.0743C48.9692 46.0743 49.6776 46.2021 50.2188 46.3408V30.4505L34.8188 33.2086V53.4951H34.8144C34.8144 56.1883 31.9522 59.9951 26.5688 59.9951C23.8342 59.9951 21.6188 58.5803 21.6188 55.9326C21.6188 52.4898 24.7978 50.4076 28.2188 50.4076C29.1692 50.4076 29.8776 50.5355 30.4188 50.6741V25.3285L54.6188 20.9951Z" fill="white"/>
<defs>
<linearGradient id="paint0_linear" x1="21.9988" y1="0.995116" x2="57.9988" y2="80.9951" gradientUnits="userSpaceOnUse">
<stop stop-color="#646464"/>
<stop offset="1"/>
</linearGradient>
</defs>
</svg>
