<svg width="80" height="81" viewBox="0 0 80 81" fill="none" xmlns="http://www.w3.org/2000/svg">
<circle cx="39.9538" cy="40.9001" r="39.905" fill="url(#paint0_linear)"/>
<path d="M29.0488 21.0016L36.9519 42.8777V42.8663L37.5775 44.5891C41.0515 54.1912 42.9183 59.3384 42.9283 59.3498C42.935 59.3498 43.4607 59.3823 44.0963 59.4148C46.0197 59.4961 48.4056 59.7073 50.2125 59.9186C50.6284 59.9674 50.9878 59.9836 51.0111 59.9674L43.1745 38.2538L42.4491 36.2547L38.4177 25.1217C37.6524 23.0088 37.0035 21.208 36.9702 21.1398L36.9186 20.9951H29.0571L29.0488 21.0016ZM43.2045 21.0146L43.1879 29.6383L43.1745 38.2619L42.4475 36.2596V36.2564L41.5074 55.4508C42.4308 57.9976 42.925 59.3563 42.93 59.3628C42.9366 59.3693 43.4624 59.4018 44.098 59.431C46.023 59.5123 48.4072 59.7236 50.2208 59.9349C50.6367 59.9836 50.9978 59.9999 51.0194 59.9836C51.041 59.9674 51.0527 51.1747 51.0477 40.4642L51.0344 21.0114H43.2045V21.0146ZM29.0488 20.9984V40.4853C29.0488 51.2023 29.0605 59.9804 29.0738 59.9934C29.0871 60.0064 29.7659 59.9446 30.5829 59.8536C31.3981 59.7561 32.5295 59.6423 33.0952 59.5936C33.9571 59.5123 36.536 59.3498 36.8354 59.3498C36.922 59.3498 36.9286 58.911 36.9403 51.0934L36.9536 42.8371L37.5858 44.5599L37.8021 45.171L38.7505 25.9928L38.4344 25.1054L36.9702 21.1398L36.9203 20.9984H29.0488Z" fill="white"/>
<defs>
<linearGradient id="paint0_linear" x1="21.4988" y1="6.99512" x2="65.4988" y2="80.9951" gradientUnits="userSpaceOnUse">
<stop stop-color="#555555"/>
<stop offset="1"/>
</linearGradient>
</defs>
</svg>
