<svg width="81" height="81" viewBox="0 0 81 81" fill="none" xmlns="http://www.w3.org/2000/svg">
<circle cx="40.7138" cy="40.9001" r="39.905" fill="url(#paint0_linear)"/>
<path d="M41.6656 21.0276C43.8018 20.9951 45.9216 21.0114 48.0414 20.9951C48.1718 23.4813 49.0687 26.0163 50.895 27.7713C52.7213 29.575 55.2977 30.4037 57.8088 30.68V37.2287C55.4607 37.1474 53.0963 36.6599 50.9602 35.6524C50.0308 35.2299 49.1665 34.6937 48.3186 34.1412C48.3023 38.8861 48.3349 43.6311 48.286 48.3598C48.1555 50.6347 47.4054 52.8935 46.0846 54.7622C43.9485 57.8822 40.247 59.9134 36.4477 59.9784C34.1159 60.1084 31.7841 59.4746 29.7947 58.3046C26.5008 56.3709 24.1854 52.8285 23.8429 49.026C23.8103 48.2135 23.794 47.401 23.8266 46.6048C24.1201 43.5173 25.6529 40.5599 28.0336 38.5449C30.7405 36.2049 34.5235 35.0837 38.062 35.7499C38.0946 38.1549 37.9967 40.5599 37.9967 42.9648C36.3824 42.4448 34.4909 42.5911 33.0723 43.5661C32.045 44.2323 31.2623 45.2561 30.8546 46.4098C30.5122 47.2385 30.61 48.1485 30.6263 49.026C31.0177 51.691 33.5941 53.9335 36.3335 53.6897C38.1598 53.6735 39.9046 52.6172 40.8503 51.0735C41.1602 50.5372 41.5026 49.9848 41.5189 49.351C41.682 46.4423 41.6167 43.5498 41.633 40.6411C41.6493 34.0925 41.6167 27.56 41.6656 21.0276Z" fill="white"/>
<defs>
<linearGradient id="paint0_linear" x1="19.9988" y1="0.995119" x2="57.4988" y2="80.9951" gradientUnits="userSpaceOnUse">
<stop stop-color="#6D6D6D"/>
<stop offset="1"/>
</linearGradient>
</defs>
</svg>
