<svg width="81" height="81" viewBox="0 0 81 81" fill="none" xmlns="http://www.w3.org/2000/svg">
<circle cx="40.1438" cy="40.9001" r="39.905" fill="url(#paint0_linear)"/>
<path d="M43.7612 36.9593C43.7371 37.0075 43.7045 37.0489 43.6659 37.0806C43.6273 37.1124 43.5834 37.1337 43.5373 37.1432C43.4912 37.1526 43.444 37.15 43.3988 37.1355C43.3537 37.121 43.3116 37.0949 43.2755 37.059L43.2559 37.04C42.7439 36.5254 42.2831 35.995 41.8499 35.4298C37.6374 29.915 40.0974 23.1447 40.1171 23.0814C40.1754 22.9205 40.1877 22.7407 40.1521 22.5705C40.1164 22.4002 40.0349 22.2491 39.9202 22.1409C39.8007 22.0378 39.6557 21.9867 39.509 21.9962C39.3622 22.0057 39.2226 22.0752 39.1129 22.1931C24.837 38.2069 28.6176 50.4049 28.8933 51.2266C30.0354 56.1999 34.584 59.7988 39.978 59.9825C40.1591 59.9951 40.2957 59.9951 40.4545 59.9951C46.8238 59.9951 52.2388 55.2625 52.2388 49.2174V49.1224C52.2388 40.7355 45.9443 32.4626 45.6634 32.1111C45.5798 31.9956 45.4669 31.9167 45.3422 31.8866C45.2176 31.8565 45.0882 31.877 44.9742 31.9449C44.7379 32.0652 44.5843 32.3486 44.5922 32.6589C44.6487 34.2993 44.373 35.7227 43.7639 36.9339V36.9577L43.7612 36.9593Z" fill="white"/>
<defs>
<linearGradient id="paint0_linear" x1="20.9988" y1="5.99512" x2="59.9988" y2="80.9951" gradientUnits="userSpaceOnUse">
<stop stop-color="#555555"/>
<stop offset="1"/>
</linearGradient>
</defs>
</svg>
